<svg width="1917" height="1010" viewBox="0 0 1917 1010" fill="none" xmlns="http://www.w3.org/2000/svg">
<path d="M261.743 99.4082C829.474 208.449 827.422 757.254 670.645 875.358C670.645 875.358 384.227 1033.71 229.091 821.453C152.728 716.97 218.904 617.131 99.7265 497.752C38.0747 435.995 22.6491 88.5464 261.743 99.4082Z" fill="#D7F4F0" fill-opacity="0.7"/>
<path d="M1403.11 836.084C1432.7 828.432 1379.3 803.919 1381.82 797.057C1385.09 789.539 1421.48 808.269 1434.47 796.788C1447.45 785.308 1386.45 760.891 1403.67 750.94C1416.86 748.061 1466.08 776.472 1474.57 763.645C1481.54 752.847 1469.26 711.006 1475.53 703.147C1481.8 695.288 1542.96 742.475 1534.41 717.478C1499.58 642.868 1573.06 669.137 1546.92 630.821" stroke="#D7F4F0" stroke-opacity="0.9" stroke-width="7.4"/>
<g clip-path="url(#clip0_103_82)">
<path fill-rule="evenodd" clip-rule="evenodd" d="M1792.92 316.036C1783.4 320.193 1776.51 328.082 1770.3 336.158C1758.21 351.879 1750.59 360.468 1731.02 367.917C1719.51 372.298 1707.3 376.817 1699.82 387.2C1694.38 394.761 1690.53 407.105 1696.12 415.659C1706.16 428.644 1723.76 430.328 1738.94 427.06C1757.75 423.009 1768.41 412.704 1773.35 394.784C1776.13 384.687 1780.56 377.662 1789.01 371.343C1795.76 366.288 1804.55 362.754 1810.49 356.709C1819.37 347.672 1822.56 337.324 1819.46 325.417C1799.97 339.278 1780.52 355.071 1764.89 373.172C1763.3 374.881 1757.61 384.52 1754.39 383.105C1750.84 381.546 1762.19 370.985 1762.12 371.058C1766.89 365.77 1772.03 360.789 1777.24 355.878C1777.25 355.888 1777.25 355.9 1777.26 355.911C1782.6 350.858 1788.03 345.828 1793.55 340.872C1795.89 338.854 1798.28 336.877 1800.73 334.964C1804.33 332.157 1814.91 327.114 1816.83 322.999C1817.25 322.119 1817.44 321.328 1817.47 320.606C1821.43 317.48 1825.43 314.419 1829.5 311.477C1840.12 303.793 1851.48 296.925 1864.03 292.886C1867.69 291.707 1881.79 290.523 1884.19 287.635C1888.57 282.355 1879.2 284.88 1876.36 285.508C1852.8 290.717 1833.52 301.732 1814.98 316.583C1809.54 313.369 1796.78 314.353 1792.92 316.036Z" fill="#F2AEBB" fill-opacity="0.7"/>
<path fill-rule="evenodd" clip-rule="evenodd" d="M1826.49 469.703C1820.08 465.471 1817.66 453.727 1817.17 446.424C1816.56 437.387 1817.63 427.901 1819.24 419.04C1821.89 404.442 1828.18 389.808 1834.37 376.486C1835.12 374.88 1843.96 355.143 1846.1 356.536C1848.22 357.917 1837.26 377.569 1835.48 381.868C1831.68 391.043 1826.92 399.613 1824.87 409.468C1822.75 419.672 1822.69 430.199 1824.03 440.498C1824.2 441.819 1823.8 446.247 1825.77 446.103C1827.7 445.963 1825.83 438.942 1825.69 437.681C1825.11 432.475 1824.97 427.182 1825.25 421.946C1825.78 412.135 1828.09 402.692 1832.31 393.833C1837.92 395.483 1841.05 400.689 1840.41 406.624C1839.86 411.753 1837.6 416.962 1837.37 421.947C1837.21 425.381 1837.96 428.709 1839.3 431.858C1842.84 440.162 1848.57 444.506 1846.15 454.401C1844.25 462.158 1835.71 475.779 1826.49 469.703Z" fill="#F2AEBB" fill-opacity="0.7"/>
</g>
<path d="M759.83 814.694C762.486 814.686 764.872 816.667 765.159 819.121C765.447 821.574 763.527 823.569 760.871 823.578C758.215 823.587 755.829 821.605 755.542 819.152C755.254 816.699 757.174 814.703 759.83 814.694Z" fill="#B796D9" fill-opacity="0.9"/>
<path d="M776.661 814.64C779.317 814.631 781.703 816.613 781.99 819.066C782.278 821.519 780.358 823.515 777.702 823.523C775.046 823.532 772.66 821.55 772.373 819.097C772.085 816.644 774.005 814.648 776.661 814.64Z" fill="#B796D9" fill-opacity="0.9"/>
<path d="M798.821 819.012C798.534 816.558 796.148 814.577 793.492 814.585C790.836 814.594 788.916 816.59 789.204 819.043C789.491 821.496 791.877 823.478 794.533 823.469C797.189 823.46 799.109 821.465 798.821 819.012Z" fill="#B796D9" fill-opacity="0.9"/>
<path d="M727.001 798.841C729.657 798.833 732.043 800.814 732.331 803.268C732.618 805.721 730.698 807.716 728.043 807.725C725.387 807.734 723.001 805.752 722.713 803.299C722.425 800.846 724.345 798.85 727.001 798.841Z" fill="#B796D9" fill-opacity="0.9"/>
<path d="M743.832 798.787C746.488 798.778 748.874 800.76 749.162 803.213C749.449 805.666 747.53 807.662 744.874 807.67C742.218 807.679 739.832 805.697 739.544 803.244C739.257 800.791 741.176 798.795 743.832 798.787Z" fill="#B796D9" fill-opacity="0.9"/>
<path d="M765.993 803.159C765.705 800.705 763.319 798.724 760.663 798.732C758.007 798.741 756.088 800.737 756.375 803.19C756.663 805.643 759.049 807.625 761.705 807.616C764.361 807.607 766.28 805.612 765.993 803.159Z" fill="#B796D9" fill-opacity="0.9"/>
<path d="M853.134 887.749C855.471 886.791 858.415 887.846 859.708 890.104C861.002 892.363 860.155 894.97 857.818 895.928C855.48 896.885 852.537 895.831 851.244 893.572C849.95 891.314 850.797 888.707 853.134 887.749Z" fill="#B796D9" fill-opacity="0.9"/>
<path d="M849.576 902.463C851.913 901.505 854.857 902.56 856.15 904.818C857.443 907.077 856.597 909.684 854.26 910.642C851.922 911.599 848.979 910.545 847.686 908.286C846.392 906.028 847.239 903.421 849.576 902.463Z" fill="#B796D9" fill-opacity="0.9"/>
<path d="M870.963 898.749C869.669 896.49 866.726 895.436 864.388 896.394C862.051 897.351 861.205 899.959 862.498 902.217C863.792 904.476 866.735 905.53 869.072 904.572C871.41 903.615 872.256 901.008 870.963 898.749Z" fill="#B796D9" fill-opacity="0.9"/>
<path d="M743.307 786.854C745.899 786.51 748.525 788.2 749.173 790.63C749.82 793.059 748.244 795.306 745.653 795.65C743.061 795.993 740.435 794.303 739.787 791.874C739.14 789.445 740.716 787.197 743.307 786.854Z" fill="#B796D9" fill-opacity="0.9"/>
<path d="M759.732 784.676C762.323 784.332 764.949 786.023 765.597 788.452C766.245 790.881 764.669 793.128 762.077 793.472C759.485 793.816 756.859 792.125 756.212 789.696C755.564 787.267 757.14 785.02 759.732 784.676Z" fill="#B796D9" fill-opacity="0.9"/>
<path d="M782.021 786.274C781.374 783.845 778.748 782.155 776.156 782.499C773.564 782.842 771.988 785.09 772.636 787.519C773.284 789.948 775.91 791.638 778.501 791.295C781.093 790.951 782.669 788.703 782.021 786.274Z" fill="#B796D9" fill-opacity="0.9"/>
<path d="M785.593 844.844C788.241 845.423 790.098 847.825 789.742 850.208C789.385 852.592 786.95 854.056 784.302 853.477C781.655 852.898 779.798 850.496 780.154 848.112C780.511 845.728 782.946 844.265 785.593 844.844Z" fill="#B796D9" fill-opacity="0.9"/>
<path d="M707.357 755.661C710.005 756.24 711.862 758.642 711.505 761.026C711.149 763.41 708.713 764.873 706.066 764.294C703.418 763.715 701.561 761.313 701.918 758.929C702.274 756.545 704.71 755.082 707.357 755.661Z" fill="#B796D9" fill-opacity="0.9"/>
<path d="M727.596 759.588C727.952 757.204 726.095 754.802 723.447 754.223C720.8 753.644 718.365 755.107 718.008 757.491C717.652 759.875 719.509 762.277 722.156 762.856C724.804 763.435 727.239 761.972 727.596 759.588Z" fill="#B796D9" fill-opacity="0.9"/>
<path d="M733.429 765.655C736.056 766.318 737.834 768.765 737.4 771.121C736.967 773.477 734.486 774.849 731.859 774.186C729.232 773.523 727.454 771.076 727.888 768.72C728.321 766.364 730.802 764.992 733.429 765.655Z" fill="#B796D9" fill-opacity="0.9"/>
<path d="M832.576 905.743C834.913 904.785 837.857 905.84 839.15 908.098C840.443 910.357 839.597 912.964 837.26 913.922C834.922 914.879 831.979 913.825 830.686 911.567C829.392 909.308 830.239 906.701 832.576 905.743Z" fill="#B796D9" fill-opacity="0.9"/>
<path d="M739.191 818.695C741.529 817.738 744.472 818.792 745.765 821.051C747.059 823.309 746.212 825.916 743.875 826.874C741.537 827.832 738.594 826.777 737.301 824.519C736.007 822.26 736.854 819.653 739.191 818.695Z" fill="#B796D9" fill-opacity="0.9"/>
<path d="M828.546 893.516C827.252 891.257 824.309 890.203 821.971 891.16C819.634 892.118 818.788 894.725 820.081 896.984C821.375 899.242 824.318 900.297 826.655 899.339C828.993 898.381 829.839 895.774 828.546 893.516Z" fill="#B796D9" fill-opacity="0.9"/>
<path d="M836.747 887.035C839.395 887.614 841.252 890.015 840.895 892.399C840.539 894.783 838.104 896.246 835.456 895.668C832.809 895.089 830.951 892.687 831.308 890.303C831.665 887.919 834.1 886.456 836.747 887.035Z" fill="#B796D9" fill-opacity="0.9"/>
<path d="M784.297 799.121C786.924 799.784 788.702 802.231 788.269 804.586C787.835 806.942 785.354 808.314 782.727 807.651C780.1 806.988 778.322 804.541 778.756 802.185C779.19 799.83 781.67 798.458 784.297 799.121Z" fill="#B796D9" fill-opacity="0.9"/>
<path d="M794.724 890.759C797.394 891.096 799.486 893.339 799.396 895.769C799.307 898.199 797.07 899.896 794.4 899.559C791.73 899.221 789.638 896.979 789.728 894.549C789.817 892.119 792.054 890.422 794.724 890.759Z" fill="#B796D9" fill-opacity="0.9"/>
<path d="M798.747 791.291C801.417 791.628 803.509 793.871 803.419 796.301C803.33 798.731 801.093 800.428 798.423 800.09C795.753 799.753 793.661 797.511 793.751 795.081C793.84 792.651 796.077 790.954 798.747 791.291Z" fill="#B796D9" fill-opacity="0.9"/>
<path d="M804.803 908.057C804.892 905.627 802.801 903.384 800.131 903.047C797.461 902.71 795.224 904.407 795.134 906.837C795.045 909.267 797.137 911.509 799.807 911.847C802.477 912.184 804.714 910.487 804.803 908.057Z" fill="#B796D9" fill-opacity="0.9"/>
<path d="M814.385 808.858C816.474 810.578 816.818 813.391 815.153 815.14C813.489 816.889 810.446 816.912 808.356 815.192C806.267 813.472 805.923 810.659 807.587 808.91C809.252 807.161 812.295 807.138 814.385 808.858Z" fill="#B796D9" fill-opacity="0.9"/>
<path d="M798.177 877.33C800.266 879.05 800.611 881.862 798.946 883.611C797.281 885.36 794.238 885.383 792.149 883.663C790.059 881.943 789.715 879.131 791.38 877.382C793.045 875.633 796.088 875.609 798.177 877.33Z" fill="#B796D9" fill-opacity="0.9"/>
<path d="M814.428 890.078C816.093 888.329 815.749 885.517 813.659 883.797C811.57 882.077 808.527 882.1 806.862 883.849C805.198 885.598 805.542 888.41 807.631 890.13C809.721 891.851 812.764 891.827 814.428 890.078Z" fill="#B796D9" fill-opacity="0.9"/>
<path d="M816.34 897.724C818.363 899.502 818.609 902.313 816.89 904.003C815.171 905.693 812.138 905.621 810.115 903.843C808.091 902.065 807.845 899.254 809.564 897.564C811.283 895.874 814.316 895.946 816.34 897.724Z" fill="#B796D9" fill-opacity="0.9"/>
<path d="M878.629 864.641C880.967 863.683 883.91 864.738 885.203 866.996C886.497 869.255 885.65 871.862 883.313 872.819C880.975 873.777 878.032 872.723 876.739 870.464C875.445 868.206 876.292 865.599 878.629 864.641Z" fill="#B796D9" fill-opacity="0.9"/>
<path d="M861.629 867.921C863.967 866.963 866.91 868.018 868.203 870.276C869.497 872.535 868.65 875.142 866.313 876.1C863.976 877.057 861.032 876.003 859.739 873.744C858.445 871.486 859.292 868.879 861.629 867.921Z" fill="#B796D9" fill-opacity="0.9"/>
<path d="M857.599 855.694C856.306 853.435 853.363 852.381 851.025 853.338C848.688 854.296 847.841 856.903 849.135 859.162C850.428 861.42 853.371 862.475 855.709 861.517C858.046 860.559 858.893 857.952 857.599 855.694Z" fill="#B796D9" fill-opacity="0.9"/>
<path d="M823.777 852.937C826.447 853.274 828.539 855.517 828.449 857.947C828.36 860.377 826.123 862.073 823.453 861.736C820.783 861.399 818.692 859.156 818.781 856.726C818.87 854.297 821.107 852.6 823.777 852.937Z" fill="#B796D9" fill-opacity="0.9"/>
<path d="M833.857 870.235C833.946 867.805 831.854 865.562 829.184 865.225C826.514 864.888 824.278 866.584 824.188 869.014C824.099 871.444 826.191 873.687 828.861 874.024C831.531 874.361 833.767 872.665 833.857 870.235Z" fill="#B796D9" fill-opacity="0.9"/>
<path d="M827.23 839.508C829.32 841.228 829.664 844.04 827.999 845.789C826.334 847.538 823.291 847.561 821.202 845.841C819.113 844.121 818.768 841.309 820.433 839.56C822.098 837.811 825.141 837.787 827.23 839.508Z" fill="#B796D9" fill-opacity="0.9"/>
<path d="M843.482 852.256C845.146 850.507 844.802 847.695 842.713 845.975C840.623 844.254 837.58 844.278 835.916 846.027C834.251 847.776 834.595 850.588 836.684 852.308C838.774 854.029 841.817 854.005 843.482 852.256Z" fill="#B796D9" fill-opacity="0.9"/>
<path d="M845.393 859.902C847.416 861.68 847.663 864.491 845.944 866.181C844.225 867.871 841.191 867.799 839.168 866.021C837.145 864.243 836.898 861.432 838.617 859.742C840.336 858.052 843.37 858.124 845.393 859.902Z" fill="#B796D9" fill-opacity="0.9"/>
<path d="M732.214 779.532C734.591 780.872 735.531 783.624 734.312 785.679C733.094 787.734 730.179 788.313 727.802 786.973C725.424 785.633 724.485 782.881 725.703 780.826C726.922 778.771 729.836 778.192 732.214 779.532Z" fill="#B796D9" fill-opacity="0.9"/>
<path d="M810.231 825.079C812.608 826.419 813.548 829.171 812.33 831.226C811.111 833.281 808.196 833.86 805.819 832.52C803.442 831.18 802.502 828.428 803.72 826.373C804.939 824.318 807.854 823.739 810.231 825.079Z" fill="#B796D9" fill-opacity="0.9"/>
<path d="M723.033 790.188C724.251 788.133 723.311 785.382 720.934 784.041C718.557 782.701 715.642 783.281 714.423 785.335C713.205 787.39 714.145 790.142 716.522 791.482C718.899 792.822 721.814 792.243 723.033 790.188Z" fill="#B796D9" fill-opacity="0.9"/>
<path d="M840.773 924.227C842.188 926.432 841.499 929.091 839.233 930.167C836.967 931.243 833.983 930.328 832.568 928.123C831.153 925.918 831.842 923.259 834.108 922.183C836.374 921.107 839.358 922.022 840.773 924.227Z" fill="#B796D9" fill-opacity="0.9"/>
<path d="M694.51 778.843C696.776 777.767 697.465 775.108 696.05 772.903C694.635 770.698 691.651 769.783 689.385 770.859C687.119 771.935 686.43 774.594 687.845 776.799C689.26 779.004 692.244 779.919 694.51 778.843Z" fill="#B796D9" fill-opacity="0.9"/>
<path d="M818.079 876.101C820.345 875.025 821.034 872.366 819.619 870.161C818.203 867.956 815.22 867.041 812.954 868.117C810.688 869.193 809.999 871.852 811.414 874.057C812.829 876.262 815.813 877.177 818.079 876.101Z" fill="#B796D9" fill-opacity="0.9"/>
<path d="M855.203 920.549C854.987 922.96 852.653 924.548 849.991 924.096C847.328 923.644 845.344 921.323 845.56 918.912C845.776 916.501 848.11 914.913 850.773 915.365C853.435 915.816 855.419 918.137 855.203 920.549Z" fill="#B796D9" fill-opacity="0.9"/>
<path d="M717.054 777.751C719.716 778.203 722.05 776.615 722.266 774.204C722.482 771.793 720.498 769.472 717.836 769.02C715.173 768.568 712.839 770.156 712.623 772.567C712.407 774.978 714.391 777.299 717.054 777.751Z" fill="#B796D9" fill-opacity="0.9"/>
<path d="M711.338 782.817C711.027 785.204 708.631 786.717 705.987 786.196C703.343 785.674 701.453 783.316 701.764 780.928C702.075 778.54 704.47 777.027 707.114 777.549C709.758 778.07 711.649 780.429 711.338 782.817Z" fill="#B796D9" fill-opacity="0.9"/>
<path d="M679.088 745.581C680.853 747.582 680.657 750.354 678.651 751.774C676.646 753.194 673.589 752.723 671.825 750.722C670.06 748.721 670.256 745.949 672.262 744.529C674.268 743.109 677.324 743.58 679.088 745.581Z" fill="#B796D9" fill-opacity="0.9"/>
<path d="M692.935 760.532C694.94 759.113 695.136 756.34 693.372 754.34C691.607 752.339 688.551 751.868 686.545 753.288C684.539 754.707 684.344 757.48 686.108 759.48C687.873 761.481 690.929 761.952 692.935 760.532Z" fill="#B796D9" fill-opacity="0.9"/>
<path d="M667.2 778.764C669.679 778.093 670.881 775.635 669.886 773.276C668.891 770.916 666.074 769.549 663.595 770.221C661.116 770.892 659.913 773.35 660.909 775.709C661.904 778.068 664.72 779.436 667.2 778.764Z" fill="#B796D9" fill-opacity="0.9"/>
<path d="M651.86 753.705C654.498 754.339 656.976 752.932 657.394 750.562C657.812 748.193 656.012 745.758 653.373 745.124C650.734 744.489 648.257 745.896 647.839 748.266C647.421 750.636 649.221 753.071 651.86 753.705Z" fill="#B796D9" fill-opacity="0.9"/>
<path d="M671.208 766.61C673.076 768.533 676.138 768.856 678.048 767.333C679.957 765.809 679.991 763.016 678.123 761.093C676.255 759.17 673.192 758.846 671.283 760.37C669.373 761.894 669.34 764.687 671.208 766.61Z" fill="#B796D9" fill-opacity="0.9"/>
<path d="M662.863 766.624C660.892 768.074 657.833 767.661 656.03 765.702C654.228 763.743 654.364 760.979 656.335 759.529C658.307 758.08 661.366 758.492 663.169 760.452C664.971 762.411 664.835 765.174 662.863 766.624Z" fill="#B796D9" fill-opacity="0.9"/>
<path d="M789.742 832.114C792.08 831.156 795.023 832.211 796.317 834.469C797.61 836.728 796.764 839.335 794.426 840.293C792.089 841.25 789.146 840.196 787.852 837.937C786.559 835.679 787.405 833.072 789.742 832.114Z" fill="#B796D9" fill-opacity="0.9"/>
<path d="M798.642 860.232C800.98 859.274 803.923 860.329 805.216 862.587C806.51 864.846 805.664 867.453 803.326 868.411C800.989 869.368 798.045 868.314 796.752 866.055C795.459 863.797 796.305 861.19 798.642 860.232Z" fill="#B796D9" fill-opacity="0.9"/>
<path d="M807.571 843.114C806.278 840.856 803.334 839.801 800.997 840.759C798.659 841.717 797.813 844.324 799.107 846.582C800.4 848.841 803.343 849.895 805.681 848.938C808.018 847.98 808.864 845.373 807.571 843.114Z" fill="#B796D9" fill-opacity="0.9"/>
<path d="M770.044 870.749C772.692 871.328 774.549 873.73 774.192 876.114C773.836 878.498 771.4 879.961 768.753 879.382C766.105 878.803 764.248 876.401 764.605 874.017C764.961 871.633 767.397 870.17 770.044 870.749Z" fill="#B796D9" fill-opacity="0.9"/>
<path d="M781.642 863.512C783.98 862.555 786.923 863.609 788.216 865.868C789.51 868.126 788.664 870.733 786.326 871.691C783.989 872.649 781.045 871.594 779.752 869.336C778.459 867.077 779.305 864.47 781.642 863.512Z" fill="#B796D9" fill-opacity="0.9"/>
<path d="M777.612 851.285C776.319 849.026 773.375 847.972 771.038 848.93C768.7 849.887 767.854 852.494 769.148 854.753C770.441 857.011 773.384 858.066 775.722 857.108C778.059 856.15 778.905 853.543 777.612 851.285Z" fill="#B796D9" fill-opacity="0.9"/>
<path d="M773.356 831.4C776.003 831.979 777.86 834.381 777.504 836.765C777.147 839.148 774.712 840.612 772.064 840.033C769.417 839.454 767.56 837.052 767.916 834.668C768.273 832.284 770.708 830.821 773.356 831.4Z" fill="#B796D9" fill-opacity="0.9"/>
<path d="M743.79 848.528C746.46 848.865 748.552 851.108 748.462 853.538C748.373 855.968 746.136 857.665 743.466 857.328C740.796 856.991 738.704 854.748 738.794 852.318C738.883 849.888 741.12 848.191 743.79 848.528Z" fill="#B796D9" fill-opacity="0.9"/>
<path d="M753.869 865.826C753.959 863.396 751.867 861.153 749.197 860.816C746.527 860.479 744.29 862.176 744.201 864.606C744.111 867.036 746.203 869.279 748.873 869.616C751.543 869.953 753.78 868.256 753.869 865.826Z" fill="#B796D9" fill-opacity="0.9"/>
<path d="M747.243 835.099C749.332 836.819 749.677 839.631 748.012 841.38C746.347 843.129 743.304 843.153 741.215 841.432C739.125 839.712 738.781 836.9 740.446 835.151C742.111 833.402 745.154 833.379 747.243 835.099Z" fill="#B796D9" fill-opacity="0.9"/>
<path d="M763.495 847.847C765.159 846.098 764.815 843.286 762.726 841.566C760.637 839.846 757.593 839.869 755.929 841.618C754.264 843.367 754.608 846.179 756.698 847.9C758.787 849.62 761.83 849.596 763.495 847.847Z" fill="#B796D9" fill-opacity="0.9"/>
<path d="M765.406 855.493C767.429 857.271 767.676 860.082 765.957 861.772C764.238 863.462 761.204 863.39 759.181 861.612C757.158 859.834 756.911 857.023 758.63 855.333C760.349 853.643 763.383 853.715 765.406 855.493Z" fill="#B796D9" fill-opacity="0.9"/>
<path d="M750.076 769.857C752.702 770.52 754.48 772.967 754.047 775.322C753.613 777.678 751.132 779.05 748.506 778.387C745.879 777.724 744.101 775.277 744.534 772.922C744.968 770.566 747.449 769.194 750.076 769.857Z" fill="#B796D9" fill-opacity="0.9"/>
<path d="M770.694 779.524C771.127 777.168 769.349 774.722 766.723 774.058C764.096 773.395 761.615 774.768 761.181 777.123C760.748 779.479 762.526 781.926 765.153 782.589C767.779 783.252 770.26 781.88 770.694 779.524Z" fill="#B796D9" fill-opacity="0.9"/>
<defs>
<clipPath id="clip0_103_82">
<rect width="236" height="206" fill="white" transform="translate(1712.32 537.032) rotate(-96.8975)"/>
</clipPath>
</defs>
</svg>
