<svg width="1867" height="1037" viewBox="0 0 1867 1037" fill="none" xmlns="http://www.w3.org/2000/svg">
<path d="M261.743 99.4082C829.474 208.449 827.422 757.254 670.645 875.358C670.645 875.358 384.227 1033.71 229.091 821.452C152.728 716.97 218.904 617.131 99.7265 497.752C38.0747 435.995 22.6491 88.5463 261.743 99.4082Z" fill="#D7F4F0" fill-opacity="0.7"/>
<path d="M1430.33 1032.98C1459.92 1025.32 1406.51 1000.81 1409.04 993.95C1412.3 986.432 1448.7 1005.16 1461.68 993.681C1474.66 982.2 1413.66 957.783 1430.88 947.833C1444.07 944.953 1493.29 973.365 1501.78 960.537C1508.76 949.739 1496.47 907.899 1502.74 900.039C1509.02 892.18 1570.17 939.368 1561.62 914.371C1526.79 839.761 1600.27 866.03 1574.14 827.713" stroke="#D7F4F0" stroke-opacity="0.9" stroke-width="7.4"/>
<g clip-path="url(#clip0_103_82)">
<path fill-rule="evenodd" clip-rule="evenodd" d="M1742.94 239.036C1733.42 243.192 1726.53 251.082 1720.32 259.157C1708.23 274.878 1700.61 283.467 1681.04 290.917C1669.53 295.297 1657.32 299.816 1649.84 310.2C1644.4 317.76 1640.55 330.105 1646.14 338.658C1656.18 351.643 1673.78 353.327 1688.96 350.059C1707.77 346.008 1718.43 335.703 1723.37 317.783C1726.15 307.686 1730.59 300.661 1739.03 294.342C1745.78 289.287 1754.57 285.753 1760.51 279.708C1769.4 270.672 1772.58 260.323 1769.48 248.416C1749.99 262.277 1730.54 278.07 1714.91 296.172C1713.32 297.881 1707.63 307.519 1704.41 306.104C1700.86 304.545 1712.21 293.984 1712.14 294.057C1716.91 288.769 1722.05 283.788 1727.26 278.877C1727.27 278.887 1727.27 278.899 1727.28 278.91C1732.62 273.857 1738.05 268.827 1743.57 263.871C1745.92 261.853 1748.3 259.877 1750.75 257.963C1754.35 255.156 1764.93 250.113 1766.86 245.999C1767.27 245.118 1767.46 244.327 1767.49 243.606C1771.45 240.479 1775.45 237.418 1779.52 234.476C1790.14 226.792 1801.5 219.924 1814.05 215.885C1817.72 214.706 1831.81 213.522 1834.21 210.634C1838.59 205.354 1829.22 207.879 1826.38 208.507C1802.82 213.716 1783.54 224.732 1765 239.583C1759.56 236.368 1746.8 237.352 1742.94 239.036Z" fill="#F2AEBB" fill-opacity="0.7"/>
<path fill-rule="evenodd" clip-rule="evenodd" d="M1776.51 392.702C1770.1 388.47 1767.68 376.726 1767.19 369.423C1766.59 360.387 1767.66 350.9 1769.26 342.039C1771.92 327.441 1778.21 312.807 1784.4 299.485C1785.14 297.879 1793.98 278.142 1796.12 279.536C1798.24 280.916 1787.28 300.568 1785.5 304.868C1781.7 314.042 1776.94 322.612 1774.89 332.467C1772.77 342.671 1772.72 353.198 1774.05 363.497C1774.23 364.818 1773.82 369.246 1775.79 369.102C1777.72 368.962 1775.86 361.941 1775.72 360.681C1775.13 355.474 1774.99 350.181 1775.27 344.945C1775.8 335.134 1778.11 325.691 1782.33 316.832C1787.95 318.482 1791.07 323.688 1790.43 329.623C1789.88 334.752 1787.62 339.961 1787.39 344.946C1787.23 348.38 1787.98 351.708 1789.32 354.857C1792.86 363.161 1798.59 367.506 1796.17 377.4C1794.27 385.157 1785.73 398.778 1776.51 392.702Z" fill="#F2AEBB" fill-opacity="0.7"/>
</g>
<path d="M643.841 872.694C646.496 872.686 648.883 874.667 649.17 877.121C649.458 879.574 647.538 881.569 644.882 881.578C642.226 881.587 639.84 879.605 639.552 877.152C639.265 874.699 641.185 872.703 643.841 872.694Z" fill="#B796D9" fill-opacity="0.9"/>
<path d="M660.672 872.64C663.328 872.631 665.714 874.613 666.001 877.066C666.289 879.519 664.369 881.515 661.713 881.523C659.057 881.532 656.671 879.55 656.383 877.097C656.096 874.644 658.016 872.648 660.672 872.64Z" fill="#B796D9" fill-opacity="0.9"/>
<path d="M682.832 877.012C682.545 874.558 680.159 872.577 677.503 872.585C674.847 872.594 672.927 874.59 673.215 877.043C673.502 879.496 675.888 881.478 678.544 881.469C681.2 881.46 683.12 879.465 682.832 877.012Z" fill="#B796D9" fill-opacity="0.9"/>
<path d="M611.012 856.841C613.668 856.833 616.054 858.814 616.341 861.268C616.629 863.721 614.709 865.716 612.053 865.725C609.397 865.734 607.011 863.752 606.724 861.299C606.436 858.846 608.356 856.85 611.012 856.841Z" fill="#B796D9" fill-opacity="0.9"/>
<path d="M627.843 856.787C630.499 856.778 632.885 858.76 633.173 861.213C633.46 863.666 631.54 865.662 628.884 865.67C626.228 865.679 623.842 863.697 623.555 861.244C623.267 858.791 625.187 856.795 627.843 856.787Z" fill="#B796D9" fill-opacity="0.9"/>
<path d="M650.004 861.159C649.716 858.705 647.33 856.724 644.674 856.732C642.018 856.741 640.098 858.737 640.386 861.19C640.673 863.643 643.059 865.625 645.715 865.616C648.371 865.607 650.291 863.612 650.004 861.159Z" fill="#B796D9" fill-opacity="0.9"/>
<path d="M737.145 945.749C739.482 944.791 742.426 945.846 743.719 948.104C745.012 950.363 744.166 952.97 741.829 953.928C739.491 954.885 736.548 953.831 735.254 951.572C733.961 949.314 734.807 946.707 737.145 945.749Z" fill="#B796D9" fill-opacity="0.9"/>
<path d="M733.587 960.463C735.924 959.505 738.867 960.56 740.161 962.818C741.454 965.077 740.608 967.684 738.27 968.642C735.933 969.599 732.99 968.545 731.696 966.286C730.403 964.028 731.249 961.421 733.587 960.463Z" fill="#B796D9" fill-opacity="0.9"/>
<path d="M754.973 956.749C753.68 954.49 750.737 953.436 748.399 954.394C746.062 955.351 745.215 957.959 746.509 960.217C747.802 962.476 750.745 963.53 753.083 962.572C755.42 961.615 756.267 959.008 754.973 956.749Z" fill="#B796D9" fill-opacity="0.9"/>
<path d="M627.318 844.854C629.91 844.51 632.536 846.2 633.183 848.63C633.831 851.059 632.255 853.306 629.663 853.65C627.072 853.993 624.446 852.303 623.798 849.874C623.15 847.445 624.726 845.197 627.318 844.854Z" fill="#B796D9" fill-opacity="0.9"/>
<path d="M643.742 842.676C646.334 842.332 648.96 844.023 649.608 846.452C650.255 848.881 648.679 851.128 646.088 851.472C643.496 851.816 640.87 850.125 640.222 847.696C639.575 845.267 641.151 843.02 643.742 842.676Z" fill="#B796D9" fill-opacity="0.9"/>
<path d="M666.032 844.274C665.384 841.845 662.759 840.155 660.167 840.499C657.575 840.842 655.999 843.09 656.647 845.519C657.294 847.948 659.92 849.638 662.512 849.295C665.104 848.951 666.68 846.703 666.032 844.274Z" fill="#B796D9" fill-opacity="0.9"/>
<path d="M669.604 902.844C672.252 903.423 674.109 905.825 673.752 908.208C673.396 910.592 670.96 912.056 668.313 911.477C665.666 910.898 663.808 908.496 664.165 906.112C664.522 903.728 666.957 902.265 669.604 902.844Z" fill="#B796D9" fill-opacity="0.9"/>
<path d="M591.368 813.661C594.015 814.24 595.873 816.642 595.516 819.026C595.159 821.41 592.724 822.873 590.077 822.294C587.429 821.715 585.572 819.313 585.929 816.929C586.285 814.545 588.72 813.082 591.368 813.661Z" fill="#B796D9" fill-opacity="0.9"/>
<path d="M611.606 817.588C611.963 815.204 610.106 812.802 607.458 812.223C604.811 811.644 602.376 813.107 602.019 815.491C601.662 817.875 603.519 820.277 606.167 820.856C608.815 821.435 611.25 819.972 611.606 817.588Z" fill="#B796D9" fill-opacity="0.9"/>
<path d="M617.44 823.655C620.067 824.318 621.845 826.765 621.411 829.121C620.978 831.477 618.497 832.849 615.87 832.186C613.243 831.523 611.465 829.076 611.899 826.72C612.332 824.364 614.813 822.992 617.44 823.655Z" fill="#B796D9" fill-opacity="0.9"/>
<path d="M716.587 963.743C718.924 962.785 721.867 963.84 723.161 966.098C724.454 968.357 723.608 970.964 721.27 971.922C718.933 972.88 715.99 971.825 714.696 969.567C713.403 967.308 714.249 964.701 716.587 963.743Z" fill="#B796D9" fill-opacity="0.9"/>
<path d="M623.202 876.695C625.539 875.738 628.483 876.792 629.776 879.051C631.069 881.309 630.223 883.916 627.886 884.874C625.548 885.832 622.605 884.777 621.312 882.519C620.018 880.26 620.864 877.653 623.202 876.695Z" fill="#B796D9" fill-opacity="0.9"/>
<path d="M712.556 951.516C711.263 949.257 708.32 948.203 705.982 949.16C703.645 950.118 702.798 952.725 704.092 954.984C705.385 957.242 708.329 958.297 710.666 957.339C713.003 956.381 713.85 953.774 712.556 951.516Z" fill="#B796D9" fill-opacity="0.9"/>
<path d="M720.758 945.035C723.406 945.614 725.263 948.015 724.906 950.399C724.55 952.783 722.114 954.246 719.467 953.668C716.819 953.089 714.962 950.687 715.319 948.303C715.675 945.919 718.11 944.456 720.758 945.035Z" fill="#B796D9" fill-opacity="0.9"/>
<path d="M668.308 857.121C670.935 857.784 672.713 860.231 672.279 862.586C671.846 864.942 669.365 866.314 666.738 865.651C664.111 864.988 662.333 862.541 662.767 860.185C663.2 857.83 665.681 856.458 668.308 857.121Z" fill="#B796D9" fill-opacity="0.9"/>
<path d="M678.735 948.759C681.405 949.096 683.496 951.339 683.407 953.769C683.318 956.199 681.081 957.896 678.411 957.559C675.741 957.221 673.649 954.979 673.738 952.549C673.828 950.119 676.065 948.422 678.735 948.759Z" fill="#B796D9" fill-opacity="0.9"/>
<path d="M682.758 849.291C685.428 849.628 687.519 851.871 687.43 854.301C687.341 856.731 685.104 858.428 682.434 858.09C679.764 857.753 677.672 855.511 677.761 853.081C677.851 850.651 680.088 848.954 682.758 849.291Z" fill="#B796D9" fill-opacity="0.9"/>
<path d="M688.814 966.057C688.903 963.627 686.811 961.384 684.141 961.047C681.471 960.71 679.235 962.407 679.145 964.837C679.056 967.267 681.148 969.509 683.818 969.847C686.488 970.184 688.724 968.487 688.814 966.057Z" fill="#B796D9" fill-opacity="0.9"/>
<path d="M698.395 866.858C700.485 868.578 700.829 871.391 699.164 873.14C697.5 874.889 694.456 874.912 692.367 873.192C690.278 871.472 689.933 868.659 691.598 866.91C693.263 865.161 696.306 865.138 698.395 866.858Z" fill="#B796D9" fill-opacity="0.9"/>
<path d="M682.188 935.33C684.277 937.05 684.621 939.862 682.957 941.611C681.292 943.36 678.249 943.383 676.16 941.663C674.07 939.943 673.726 937.131 675.391 935.382C677.055 933.633 680.098 933.609 682.188 935.33Z" fill="#B796D9" fill-opacity="0.9"/>
<path d="M698.439 948.078C700.104 946.329 699.76 943.517 697.67 941.797C695.581 940.077 692.538 940.1 690.873 941.849C689.208 943.598 689.553 946.41 691.642 948.13C693.731 949.851 696.774 949.827 698.439 948.078Z" fill="#B796D9" fill-opacity="0.9"/>
<path d="M700.35 955.724C702.374 957.502 702.62 960.313 700.901 962.003C699.182 963.693 696.149 963.621 694.125 961.843C692.102 960.065 691.856 957.254 693.575 955.564C695.294 953.874 698.327 953.946 700.35 955.724Z" fill="#B796D9" fill-opacity="0.9"/>
<path d="M762.64 922.641C764.977 921.683 767.921 922.738 769.214 924.996C770.507 927.255 769.661 929.862 767.324 930.819C764.986 931.777 762.043 930.723 760.75 928.464C759.456 926.206 760.302 923.599 762.64 922.641Z" fill="#B796D9" fill-opacity="0.9"/>
<path d="M745.64 925.921C747.977 924.963 750.921 926.018 752.214 928.276C753.507 930.535 752.661 933.142 750.324 934.1C747.986 935.057 745.043 934.003 743.75 931.744C742.456 929.486 743.303 926.879 745.64 925.921Z" fill="#B796D9" fill-opacity="0.9"/>
<path d="M741.61 913.694C740.317 911.435 737.373 910.381 735.036 911.338C732.698 912.296 731.852 914.903 733.146 917.162C734.439 919.42 737.382 920.475 739.72 919.517C742.057 918.559 742.903 915.952 741.61 913.694Z" fill="#B796D9" fill-opacity="0.9"/>
<path d="M707.788 910.937C710.458 911.274 712.55 913.517 712.46 915.947C712.371 918.377 710.134 920.073 707.464 919.736C704.794 919.399 702.702 917.156 702.792 914.726C702.881 912.297 705.118 910.6 707.788 910.937Z" fill="#B796D9" fill-opacity="0.9"/>
<path d="M717.867 928.235C717.957 925.805 715.865 923.562 713.195 923.225C710.525 922.888 708.288 924.584 708.199 927.014C708.11 929.444 710.201 931.687 712.871 932.024C715.541 932.361 717.778 930.665 717.867 928.235Z" fill="#B796D9" fill-opacity="0.9"/>
<path d="M711.241 897.508C713.33 899.228 713.675 902.04 712.01 903.789C710.345 905.538 707.302 905.561 705.213 903.841C703.123 902.121 702.779 899.309 704.444 897.56C706.109 895.811 709.152 895.787 711.241 897.508Z" fill="#B796D9" fill-opacity="0.9"/>
<path d="M727.492 910.256C729.157 908.507 728.813 905.695 726.723 903.975C724.634 902.254 721.591 902.278 719.926 904.027C718.262 905.776 718.606 908.588 720.695 910.308C722.785 912.029 725.828 912.005 727.492 910.256Z" fill="#B796D9" fill-opacity="0.9"/>
<path d="M729.404 917.902C731.427 919.68 731.673 922.491 729.954 924.181C728.235 925.871 725.202 925.799 723.179 924.021C721.155 922.243 720.909 919.432 722.628 917.742C724.347 916.052 727.38 916.124 729.404 917.902Z" fill="#B796D9" fill-opacity="0.9"/>
<path d="M616.225 837.532C618.602 838.872 619.542 841.624 618.323 843.679C617.105 845.734 614.19 846.313 611.813 844.973C609.435 843.633 608.496 840.881 609.714 838.826C610.932 836.771 613.847 836.192 616.225 837.532Z" fill="#B796D9" fill-opacity="0.9"/>
<path d="M694.242 883.079C696.619 884.419 697.559 887.171 696.34 889.226C695.122 891.281 692.207 891.86 689.83 890.52C687.452 889.18 686.513 886.428 687.731 884.373C688.949 882.318 691.864 881.739 694.242 883.079Z" fill="#B796D9" fill-opacity="0.9"/>
<path d="M607.043 848.188C608.262 846.133 607.322 843.382 604.945 842.041C602.567 840.701 599.653 841.281 598.434 843.335C597.216 845.39 598.155 848.142 600.533 849.482C602.91 850.822 605.825 850.243 607.043 848.188Z" fill="#B796D9" fill-opacity="0.9"/>
<path d="M724.784 982.227C726.199 984.432 725.51 987.091 723.244 988.167C720.978 989.243 717.994 988.328 716.579 986.123C715.164 983.918 715.853 981.259 718.119 980.183C720.385 979.107 723.368 980.022 724.784 982.227Z" fill="#B796D9" fill-opacity="0.9"/>
<path d="M578.521 836.843C580.786 835.767 581.476 833.108 580.061 830.903C578.645 828.698 575.661 827.783 573.396 828.859C571.13 829.935 570.441 832.594 571.856 834.799C573.271 837.004 576.255 837.919 578.521 836.843Z" fill="#B796D9" fill-opacity="0.9"/>
<path d="M702.09 934.101C704.355 933.025 705.045 930.366 703.629 928.161C702.214 925.956 699.23 925.041 696.965 926.117C694.699 927.193 694.009 929.852 695.425 932.057C696.84 934.262 699.824 935.177 702.09 934.101Z" fill="#B796D9" fill-opacity="0.9"/>
<path d="M739.213 978.549C738.997 980.96 736.664 982.548 734.001 982.096C731.339 981.644 729.355 979.323 729.571 976.912C729.787 974.501 732.121 972.913 734.783 973.365C737.446 973.816 739.429 976.137 739.213 978.549Z" fill="#B796D9" fill-opacity="0.9"/>
<path d="M601.064 835.751C603.727 836.203 606.06 834.615 606.276 832.204C606.492 829.793 604.509 827.472 601.846 827.02C599.184 826.568 596.85 828.156 596.634 830.567C596.418 832.978 598.402 835.299 601.064 835.751Z" fill="#B796D9" fill-opacity="0.9"/>
<path d="M595.349 840.817C595.037 843.204 592.642 844.717 589.998 844.196C587.354 843.674 585.463 841.316 585.774 838.928C586.086 836.54 588.481 835.027 591.125 835.549C593.769 836.07 595.66 838.429 595.349 840.817Z" fill="#B796D9" fill-opacity="0.9"/>
<path d="M563.099 803.581C564.864 805.582 564.668 808.354 562.662 809.774C560.656 811.194 557.6 810.723 555.836 808.722C554.071 806.721 554.267 803.949 556.273 802.529C558.278 801.109 561.335 801.58 563.099 803.581Z" fill="#B796D9" fill-opacity="0.9"/>
<path d="M576.945 818.532C578.951 817.113 579.147 814.34 577.382 812.34C575.618 810.339 572.562 809.868 570.556 811.288C568.55 812.707 568.354 815.48 570.119 817.48C571.883 819.481 574.94 819.952 576.945 818.532Z" fill="#B796D9" fill-opacity="0.9"/>
<path d="M551.21 836.764C553.689 836.093 554.892 833.635 553.897 831.276C552.902 828.916 550.085 827.549 547.606 828.221C545.127 828.892 543.924 831.35 544.919 833.709C545.915 836.068 548.731 837.436 551.21 836.764Z" fill="#B796D9" fill-opacity="0.9"/>
<path d="M535.87 811.705C538.509 812.339 540.986 810.932 541.404 808.562C541.822 806.193 540.022 803.758 537.384 803.124C534.745 802.489 532.268 803.896 531.85 806.266C531.432 808.636 533.232 811.071 535.87 811.705Z" fill="#B796D9" fill-opacity="0.9"/>
<path d="M555.218 824.61C557.087 826.533 560.149 826.856 562.059 825.333C563.968 823.809 564.002 821.016 562.134 819.093C560.265 817.17 557.203 816.846 555.294 818.37C553.384 819.894 553.35 822.687 555.218 824.61Z" fill="#B796D9" fill-opacity="0.9"/>
<path d="M546.874 824.624C544.903 826.074 541.844 825.661 540.041 823.702C538.238 821.743 538.375 818.979 540.346 817.529C542.317 816.08 545.377 816.492 547.179 818.452C548.982 820.411 548.845 823.174 546.874 824.624Z" fill="#B796D9" fill-opacity="0.9"/>
<path d="M673.753 890.114C676.091 889.156 679.034 890.211 680.327 892.469C681.621 894.728 680.774 897.335 678.437 898.293C676.1 899.25 673.156 898.196 671.863 895.937C670.569 893.679 671.416 891.072 673.753 890.114Z" fill="#B796D9" fill-opacity="0.9"/>
<path d="M682.653 918.232C684.991 917.274 687.934 918.329 689.227 920.587C690.521 922.846 689.674 925.453 687.337 926.411C684.999 927.368 682.056 926.314 680.763 924.055C679.469 921.797 680.316 919.19 682.653 918.232Z" fill="#B796D9" fill-opacity="0.9"/>
<path d="M691.582 901.114C690.288 898.856 687.345 897.801 685.008 898.759C682.67 899.717 681.824 902.324 683.117 904.582C684.411 906.841 687.354 907.895 689.691 906.938C692.029 905.98 692.875 903.373 691.582 901.114Z" fill="#B796D9" fill-opacity="0.9"/>
<path d="M654.055 928.749C656.702 929.328 658.56 931.73 658.203 934.114C657.846 936.498 655.411 937.961 652.764 937.382C650.116 936.803 648.259 934.401 648.616 932.017C648.972 929.633 651.407 928.17 654.055 928.749Z" fill="#B796D9" fill-opacity="0.9"/>
<path d="M665.653 921.512C667.991 920.555 670.934 921.609 672.227 923.868C673.521 926.126 672.674 928.733 670.337 929.691C667.999 930.649 665.056 929.594 663.763 927.336C662.469 925.077 663.316 922.47 665.653 921.512Z" fill="#B796D9" fill-opacity="0.9"/>
<path d="M661.623 909.285C660.329 907.026 657.386 905.972 655.049 906.93C652.711 907.887 651.865 910.494 653.158 912.753C654.452 915.011 657.395 916.066 659.732 915.108C662.07 914.15 662.916 911.543 661.623 909.285Z" fill="#B796D9" fill-opacity="0.9"/>
<path d="M657.366 889.4C660.014 889.979 661.871 892.381 661.514 894.765C661.158 897.148 658.723 898.612 656.075 898.033C653.428 897.454 651.571 895.052 651.927 892.668C652.284 890.284 654.719 888.821 657.366 889.4Z" fill="#B796D9" fill-opacity="0.9"/>
<path d="M627.801 906.528C630.47 906.865 632.562 909.108 632.473 911.538C632.383 913.968 630.147 915.665 627.477 915.328C624.807 914.991 622.715 912.748 622.804 910.318C622.894 907.888 625.131 906.191 627.801 906.528Z" fill="#B796D9" fill-opacity="0.9"/>
<path d="M637.88 923.826C637.97 921.396 635.878 919.153 633.208 918.816C630.538 918.479 628.301 920.176 628.212 922.606C628.122 925.036 630.214 927.279 632.884 927.616C635.554 927.953 637.791 926.256 637.88 923.826Z" fill="#B796D9" fill-opacity="0.9"/>
<path d="M631.254 893.099C633.343 894.819 633.687 897.631 632.023 899.38C630.358 901.129 627.315 901.153 625.225 899.432C623.136 897.712 622.792 894.9 624.457 893.151C626.121 891.402 629.164 891.379 631.254 893.099Z" fill="#B796D9" fill-opacity="0.9"/>
<path d="M647.506 905.847C649.17 904.098 648.826 901.286 646.737 899.566C644.647 897.846 641.604 897.869 639.939 899.618C638.275 901.367 638.619 904.179 640.708 905.9C642.798 907.62 645.841 907.596 647.506 905.847Z" fill="#B796D9" fill-opacity="0.9"/>
<path d="M649.417 913.493C651.44 915.271 651.687 918.082 649.968 919.772C648.249 921.462 645.215 921.39 643.192 919.612C641.169 917.834 640.922 915.023 642.641 913.333C644.36 911.643 647.394 911.715 649.417 913.493Z" fill="#B796D9" fill-opacity="0.9"/>
<path d="M634.086 827.857C636.713 828.52 638.491 830.967 638.058 833.322C637.624 835.678 635.143 837.05 632.516 836.387C629.889 835.724 628.112 833.277 628.545 830.922C628.979 828.566 631.459 827.194 634.086 827.857Z" fill="#B796D9" fill-opacity="0.9"/>
<path d="M654.705 837.524C655.138 835.168 653.36 832.722 650.733 832.058C648.106 831.395 645.626 832.768 645.192 835.123C644.758 837.479 646.536 839.926 649.163 840.589C651.79 841.252 654.271 839.88 654.705 837.524Z" fill="#B796D9" fill-opacity="0.9"/>
<defs>
<clipPath id="clip0_103_82">
<rect width="236" height="206" fill="white" transform="translate(1662.34 460.031) rotate(-96.8975)"/>
</clipPath>
</defs>
</svg>
